Licence to Kill (1989) 1080P       



Verenigd Koninkrijk / Verenigde Staten
Actie / Thriller
133 minuten

geregisseerd door John Glen
met Timothy Dalton, Carey Lowell en Robert Davi

Vlak na een belangrijke drugs-inval trouwt de CIA-agent Felix Leiter. Wanneer de gearresteerde drugsbaron ontsnapt vermoordt hij zijn vrouw en mishandelt hij Leiter. Zijn oude vriend, Brits geheim agent James Bond, is uit op wraak. Wanneer M 007 het bevel geeft om de zaak te laten rusten maakt Bond zich los van de geheime dienst, en gaat op een persoonlijke tocht om wraak te nemen.

English

James Bond is on possibly his most brutal mission yet. Bond's good friend, Felix Leiter is left near to death, by drug baron Franz Sanchez. Bond sets off on the hunt for Sanchez, but not everyone is happy. MI6 do not feel Sanchez is not their problem and strips Bond of his license to kill. Bond is now more dangerously than ever. Bond gains the aide of one of Leiter friends, known as Pam Bouvier and sneaks his way into the drug factories, which Sanchez owns. Will Bond be able to keep up his identity secret, or will Sanchez see Bonds true intentions? 


Spotinformatie 
Categorie : Beeld 
Formaat : x264HD 
Bron : Retail
 
Ondertitels : Nederlands (instelbaar)
Engels (instelbaar)

---Compressie: x264 MKV
---Audio: Engels 5.1 DTS & 5.1 DD
---Subs: Engels & Nederlands
---Bewerking: Bradje 
Genre : Actie

Format                           : Matroska
File size                        : 9.35 GiB
Duration                         : 2h 13mn
Overall bit rate                 : 10.0 Mbps
Encoded date                     : UTC 2010-08-25 09:09:51
Writing application              : mkvmerge v3.3.0 ('Language') built on Mar 24 2010 14:59:24
Writing library                  : libebml v0.8.0 + libmatroska v0.9.0

Video
ID                               : 1
Format                           : AVC
Format/Info                      : Advanced Video Codec
Format profile                   : High@L4.0
Format settings, CABAC           : Yes
Format settings, ReFrames        : 3 frames
Muxing mode                      : Container profile=Unknown@4.0
Codec ID                         : V_MPEG4/ISO/AVC
Duration                         : 2h 13mn
Bit rate                         : 7 694 Kbps
Nominal bit rate                 : 7 889 Kbps
Width                            : 1 920 pixels
Height                           : 812 pixels
Display aspect ratio             : 2.35
Frame rate                       : 23.976 fps
Resolution                       : 24 bits
Colorimetry                      : 4:2:0
Scan type                        : Progressive
Bits/(Pixel*Frame)               : 0.206
Stream size                      : 7.16 GiB (77%)
Title                            : x264
Writing library                  : x264 core 65 r1066M 045ae40
Encoding settings                : cabac=1 / ref=3 / deblock=1:0:0 / analyse=0x3:0x133 / me=umh / subme=7 / psy_rd=1.0:0.0 / mixed_ref=1 / me_range=16 / chroma_me=1 / trellis=1 / 8x8dct=1 / cqm=0 / deadzone=21,11 / chroma_qp_offset=-2 / threads=6 / nr=0 / decimate=1 / mbaff=0 / bframes=3 / b_pyramid=0 / b_adapt=1 / b_bias=0 / direct=3 / wpredb=1 / keyint=250 / keyint_min=25 / scenecut=40(pre) / rc=2pass / bitrate=7889 / ratetol=1.0 / qcomp=0.60 / qpmin=10 / qpmax=51 / qpstep=4 / cplxblur=20.0 / qblur=0.5 / vbv_maxrate=25000 / vbv_bufsize=25000 / ip_ratio=1.40 / pb_ratio=1.30 / aq=1:1.00

Audio #1
ID                               : 2
Format                           : AC-3
Format/Info                      : Audio Coding 3
Codec ID                         : A_AC3
Duration                         : 2h 13mn
Bit rate mode                    : Constant
Bit rate                         : 640 Kbps
Channel(s)                       : 6 channels
Channel positions                : Front: L C R, Surround: L R, LFE
Sampling rate                    : 48.0 KHz
Stream size                      : 610 MiB (6%)
Title                            : AC3
Language                         : English

Audio #2
ID                               : 3
Format                           : DTS
Format/Info                      : Digital Theater Systems
Codec ID                         : A_DTS
Duration                         : 2h 13mn
Bit rate mode                    : Constant
Bit rate                         : 1 510 Kbps
Channel(s)                       : 6 channels
Channel positions                : Front: L C R, Surround: L R, LFE
Sampling rate                    : 48.0 KHz
Resolution                       : 24 bits
Stream size                      : 1.41 GiB (15%)
Title                            : DTS
Language                         : English

Text #1
ID                               : 4
Format                           : UTF-8
Codec ID                         : S_TEXT/UTF8
Codec ID/Info                    : UTF-8 Plain Text
Title                            : Subtitles
Language                         : Dutch

Text #2
ID                               : 5
Format                           : UTF-8
Codec ID                         : S_TEXT/UTF8
Codec ID/Info                    : UTF-8 Plain Text
Title                            : Subtitles
Language                         : English

Thriller
 
Weblink :  http://www.moviemeter.nl/film/1809
Weblink :  http://www.imdb.com/title/tt0097742 

******************************************

Brought to you by 
Pioen

2Lions Team

meer zien??
Kom dan eens kijken op ons forum 
                                         
http://www.2lions-site.nl


2Lions the site to be for all your Dutch MOVIES and more

******************************************


DON T HIT AND RUN Niet gelijk afhaken als de FILM binnen is blijf seeden. 

Don`t quit after you finished the download, but keep seeding


There are fake torrents from uploaders who use our team name.
Those are not ours, or members from our team.
We 2Lions-Team are not responsible for the fake posts on our name

Wij 2Lions-Team zijn niet verantwoordelijk voor die zieke FAKE posten die op onze naam worden gedaan




 
 
 
 
